# xmcd
#
# Track frame offsets:
#	150
#	15926
#	31168
#	44974
#	55680
#	72832
#	95437
#
# Disc length: 1584 seconds
#
# Revision: 0
# Processed by: cddbd v1.5.2PL0 Copyright (c) Steve Scherf et al.
# Submitted via: dBpowerAMP V4.0
#
DISCID=52062e07
DTITLE=Adele - 19 - Live At Hotel Cafe (Bonus Disc)
DYEAR=2008
DGENRE=Blues
TTITLE0=Right As Rain
TTITLE1=Melt My Heart To Stone
TTITLE2=My Same
TTITLE3=That's It, I Quit, I'm Moving On
TTITLE4=Chasing Pavements (Recorded at The Hotel Cafe, Los Angeles, CA on March 20th, 2008)
TTITLE5=Cold Shoulder (Basement Jaxx Classic Remix)
TTITLE6=Hometown Glory (Axwell Club Mix)
EXTD=
EXTT0=
EXTT1=
EXTT2=
EXTT3=
EXTT4=
EXTT5=
EXTT6=
PLAYORDER=
